<svg width="214" height="127" viewBox="0 0 214 127" fill="none" xmlns="http://www.w3.org/2000/svg">
<path d="M182.034 126.432C176.37 126.432 171.522 125.04 167.49 122.256C163.554 119.376 160.578 115.632 158.562 111.024C156.546 106.416 155.538 101.472 155.538 96.192C155.538 88.896 156.882 82.416 159.57 76.752C162.354 70.992 166.098 66.528 170.802 63.36C175.506 60.096 180.786 58.464 186.642 58.464C192.306 58.464 197.154 59.904 201.186 62.784C205.218 65.568 208.242 69.264 210.258 73.872C212.274 78.48 213.282 83.424 213.282 88.704C213.282 96 211.89 102.528 209.106 108.288C206.322 113.952 202.53 118.416 197.73 121.68C193.026 124.848 187.794 126.432 182.034 126.432ZM183.618 110.88C186.882 110.88 189.618 109.104 191.826 105.552C194.13 102 195.282 96.816 195.282 90C195.282 84.72 194.322 80.736 192.402 78.048C190.482 75.36 188.178 74.016 185.49 74.016C182.034 74.016 179.154 75.792 176.85 79.344C174.642 82.8 173.538 87.984 173.538 94.896C173.538 100.368 174.498 104.4 176.418 106.992C178.338 109.584 180.738 110.88 183.618 110.88Z" fill="url(#paint0_linear_18_66)"/>
<path d="M165.391 93.6C166.639 93.6 167.599 94.176 168.271 95.328C169.039 96.48 169.423 98.064 169.423 100.08C169.423 103.92 168.511 106.896 166.687 109.008C162.559 114.096 158.047 118.272 153.151 121.536C148.255 124.8 142.639 126.432 136.303 126.432C116.719 126.432 106.927 112.656 106.927 85.104C106.927 80.88 107.071 76.608 107.359 72.288H101.743C98.8629 72.288 96.8949 71.76 95.8389 70.704C94.8789 69.648 94.3989 67.968 94.3989 65.664C94.3989 60.288 96.5589 57.6 100.879 57.6H109.087C110.719 47.04 113.215 37.392 116.575 28.656C119.935 19.92 123.967 12.96 128.671 7.77599C133.471 2.592 138.607 0 144.079 0C148.111 0 151.279 1.776 153.583 5.328C155.887 8.88 157.039 13.344 157.039 18.72C157.039 33.6 150.799 46.56 138.319 57.6H154.447C155.983 57.6 157.087 57.936 157.759 58.608C158.431 59.28 158.767 60.528 158.767 62.352C158.767 68.976 153.343 72.288 142.495 72.288H124.927C124.735 77.088 124.639 80.832 124.639 83.52C124.639 93.504 125.791 100.512 128.095 104.544C130.495 108.576 134.239 110.592 139.327 110.592C143.455 110.592 147.103 109.344 150.271 106.848C153.439 104.352 157.183 100.608 161.503 95.616C162.655 94.272 163.951 93.6 165.391 93.6ZM140.191 13.824C138.751 13.824 137.119 15.648 135.295 19.296C133.567 22.848 131.887 27.84 130.255 34.272C128.719 40.608 127.423 47.664 126.367 55.44C132.031 50.544 136.255 45.072 139.039 39.024C141.919 32.88 143.359 27.312 143.359 22.32C143.359 16.656 142.303 13.824 140.191 13.824Z" fill="url(#paint1_linear_18_66)"/>
<path d="M104.256 99.504C105.696 98.928 106.896 98.64 107.856 98.64C109.392 98.64 110.544 99.216 111.312 100.368C112.08 101.52 112.464 103.008 112.464 104.832C112.464 107.712 111.744 110.16 110.304 112.176C108.96 114.192 106.608 116.016 103.248 117.648C97.584 120.336 90.24 122.496 81.216 124.128C72.192 125.664 63.312 126.432 54.576 126.432C42.48 126.432 32.352 125.088 24.192 122.4C16.032 119.616 9.936 115.824 5.904 111.024C1.968 106.224 0 100.8 0 94.752C0 86.496 2.64 79.488 7.92 73.728C13.296 67.872 21.168 63.648 31.536 61.056C25.872 59.424 21.504 56.544 18.432 52.416C15.456 48.288 13.968 43.68 13.968 38.592C13.968 31.68 16.128 25.584 20.448 20.304C24.864 14.928 30.768 10.8 38.16 7.91998C45.552 5.03998 53.664 3.59998 62.496 3.59998C74.4 3.59998 83.328 6.19197 89.28 11.376C95.232 16.464 98.208 23.088 98.208 31.248C98.208 36.912 97.152 41.52 95.04 45.072C93.024 48.528 90.096 50.256 86.256 50.256C83.568 50.256 81.456 49.68 79.92 48.528C78.384 47.28 77.616 45.456 77.616 43.056C77.616 41.424 77.856 39.648 78.336 37.728C78.816 34.56 79.056 32.4 79.056 31.248C79.056 27.792 77.76 25.008 75.168 22.896C72.576 20.688 68.256 19.584 62.208 19.584C54.048 19.584 47.52 21.312 42.624 24.768C37.728 28.224 35.28 32.88 35.28 38.736C35.28 43.248 37.104 46.992 40.752 49.968C44.496 52.848 50.544 54.432 58.896 54.72C61.008 54.816 62.496 55.296 63.36 56.16C64.224 57.024 64.656 58.464 64.656 60.48C64.656 66.816 61.776 70.032 56.016 70.128C48.048 70.32 41.424 71.424 36.144 73.44C30.96 75.456 27.168 78.048 24.768 81.216C22.464 84.288 21.312 87.6 21.312 91.152C21.312 97.104 24.096 101.616 29.664 104.688C35.232 107.664 44.064 109.152 56.16 109.152C64.128 109.152 72.528 108.24 81.36 106.416C90.288 104.496 97.92 102.192 104.256 99.504Z" fill="url(#paint2_linear_18_66)"/>
<defs>
<linearGradient id="paint0_linear_18_66" x1="25.5361" y1="-24.788" x2="376.036" y2="181.712" gradientUnits="userSpaceOnUse">
<stop stop-color="#B54CBA"/>
<stop offset="1" stop-color="white"/>
</linearGradient>
<linearGradient id="paint1_linear_18_66" x1="25.5362" y1="-24.788" x2="376.036" y2="181.712" gradientUnits="userSpaceOnUse">
<stop stop-color="#B54CBA"/>
<stop offset="1" stop-color="white"/>
</linearGradient>
<linearGradient id="paint2_linear_18_66" x1="25.536" y1="-24.788" x2="376.036" y2="181.712" gradientUnits="userSpaceOnUse">
<stop stop-color="#B54CBA"/>
<stop offset="1" stop-color="white"/>
</linearGradient>
</defs>
</svg>
